<?xml version="1.0" encoding="UTF-8"?>
<svg xmlns="http://www.w3.org/2000/svg" xmlns:xlink="http://www.w3.org/1999/xlink" width="100px" height="108px" viewBox="0 0 100 107" version="1.1">
<g id="surface1">
<path style=" stroke:none;fill-rule:nonzero;fill:rgb(0%,0%,0%);fill-opacity:1;" d="M 54.335938 0.09375 C 53.300781 0.199219 51.667969 0.558594 50.546875 0.9375 C 48.132812 1.738281 45.378906 3.335938 43.660156 4.921875 L 43.105469 5.441406 L 43.046875 5.148438 C 43.023438 4.980469 43.003906 4.273438 43.023438 3.554688 C 43.039062 2.84375 43.039062 2.257812 43.023438 2.257812 C 42.878906 2.257812 41.1875 3.234375 40.320312 3.804688 C 36.792969 6.160156 34.015625 9.453125 32.019531 13.675781 C 31.1875 15.441406 30.363281 17.847656 30.023438 19.519531 L 29.90625 20.105469 L 26.835938 20.078125 L 23.753906 20.0625 L 19.941406 23.371094 L 16.121094 26.675781 L 15.875 27.492188 L 15.632812 28.3125 L 13.601562 29.257812 C 10.21875 30.835938 4.25 33.804688 2.792969 34.625 C 1.640625 35.277344 1.390625 35.460938 1.171875 35.777344 C 0.757812 36.386719 0.523438 36.890625 0.277344 37.675781 C 0.0859375 38.320312 0.0585938 38.5625 0.0507812 39.625 L 0.0429688 40.835938 L 2.273438 45.089844 C 3.769531 47.949219 4.5625 49.363281 4.671875 49.414062 C 4.765625 49.445312 5.582031 49.539062 6.480469 49.613281 C 10.132812 49.929688 16.757812 50.558594 16.792969 50.589844 C 16.816406 50.617188 16.925781 51.074219 17.035156 51.628906 C 17.15625 52.179688 17.273438 52.730469 17.296875 52.847656 L 17.355469 53.066406 L 11.960938 53.023438 L 6.558594 52.972656 L 6.660156 53.214844 C 6.996094 54.09375 8.332031 57.945312 8.332031 58.046875 C 8.332031 58.113281 7.953125 59.226562 7.484375 60.523438 C 7.011719 61.816406 6.640625 62.886719 6.660156 62.894531 C 6.675781 62.914062 7.652344 62.988281 8.828125 63.0625 C 10.007812 63.136719 10.984375 63.207031 10.992188 63.222656 C 11 63.230469 11.339844 64.25 11.742188 65.496094 C 12.144531 66.734375 12.492188 67.769531 12.507812 67.785156 C 12.523438 67.804688 12.964844 67.433594 13.484375 66.96875 C 14.007812 66.507812 14.460938 66.121094 14.496094 66.121094 C 14.519531 66.121094 15.144531 66.933594 15.867188 67.929688 C 16.953125 69.40625 17.214844 69.707031 17.296875 69.617188 C 17.355469 69.558594 18.382812 68.371094 19.585938 66.992188 L 21.777344 64.46875 L 21.734375 64.042969 L 21.691406 63.613281 L 24.117188 63.613281 L 28.8125 58.800781 C 31.390625 56.148438 33.5 53.941406 33.5 53.894531 C 33.5 53.835938 33.183594 52.523438 32.792969 50.96875 L 32.097656 48.140625 L 32.355469 48.03125 C 32.5 47.972656 33.28125 47.691406 34.097656 47.398438 L 35.582031 46.871094 L 36.488281 43.792969 C 36.988281 42.105469 37.375 40.652344 37.355469 40.566406 C 37.332031 40.484375 36.507812 38.621094 35.53125 36.421875 C 34.546875 34.214844 33.753906 32.410156 33.769531 32.394531 C 33.914062 32.277344 37.652344 30.167969 37.667969 30.195312 C 37.695312 30.210938 37.5 31.011719 37.246094 31.976562 L 36.785156 33.722656 L 38.519531 37.558594 L 40.242188 41.386719 L 38.871094 45.125 L 37.5 48.859375 L 36.320312 49.296875 C 35.671875 49.53125 35.109375 49.738281 35.066406 49.753906 C 35.023438 49.773438 35.269531 50.890625 35.605469 52.238281 C 36.121094 54.285156 36.203125 54.71875 36.121094 54.855469 C 36.0625 54.945312 33.460938 57.796875 30.328125 61.199219 C 24.789062 67.226562 24.636719 67.375 24.378906 67.335938 C 24.234375 67.308594 23.871094 67.25 23.570312 67.210938 L 23.023438 67.125 L 22.652344 67.519531 C 21.5 68.765625 19.175781 71.847656 17.996094 73.695312 C 14.65625 78.929688 12.734375 83.953125 11.996094 89.363281 C 11.808594 90.714844 11.742188 93.890625 11.859375 95.421875 C 12.171875 99.21875 13.292969 103.078125 14.957031 106.046875 C 15.4375 106.898438 15.574219 107.058594 15.574219 106.765625 C 15.574219 106.488281 16.230469 104.039062 16.566406 103.0625 C 18.023438 98.832031 20.582031 94.769531 23.863281 91.476562 L 25.125 90.214844 L 24.722656 89.597656 C 23.796875 88.183594 23.082031 86.527344 22.644531 84.78125 C 22.207031 83.007812 22.097656 82.082031 22.105469 79.914062 C 22.105469 77.984375 22.164062 77.28125 22.449219 75.777344 L 22.59375 75.027344 L 22.820312 76.152344 C 23.730469 80.703125 25.539062 85 28.121094 88.777344 C 28.914062 89.929688 30.125 91.46875 30.21875 91.433594 C 30.328125 91.394531 35.859375 84.773438 35.859375 84.679688 C 35.859375 84.640625 35.640625 84.304688 35.371094 83.9375 C 33.273438 81.136719 31.734375 77.683594 31.09375 74.324219 C 30.917969 73.4375 30.867188 72.851562 30.832031 71.640625 L 30.800781 70.09375 L 31.4375 71.554688 C 34.765625 79.214844 38.8125 84.804688 43.191406 87.796875 C 43.9375 88.316406 45.554688 89.152344 45.902344 89.210938 C 46.027344 89.238281 46.269531 88.667969 47.390625 85.808594 C 48.132812 83.929688 48.738281 82.347656 48.738281 82.296875 C 48.738281 82.246094 48.5625 82.054688 48.339844 81.878906 C 46.726562 80.542969 44.34375 78.109375 42.945312 76.371094 C 40.574219 73.429688 38.863281 70.292969 38.171875 67.585938 C 37.980469 66.808594 37.753906 65.296875 37.828125 65.226562 C 37.84375 65.203125 38.113281 65.6875 38.417969 66.296875 C 41.320312 72.109375 45.882812 76.980469 51.5 80.273438 C 54.671875 82.140625 58.476562 83.628906 61.867188 84.304688 C 63.121094 84.5625 63.382812 84.570312 63.382812 84.363281 C 63.382812 84.269531 63.59375 82.273438 63.847656 79.90625 C 64.097656 77.550781 64.292969 75.609375 64.285156 75.601562 C 64.277344 75.59375 63.949219 75.425781 63.5625 75.234375 C 61.582031 74.257812 58.417969 72.417969 56.464844 71.113281 C 53.609375 69.214844 51.726562 67.6875 49.570312 65.546875 C 47.914062 63.890625 46.960938 62.777344 46.019531 61.359375 C 45.503906 60.589844 44.527344 58.75 44.527344 58.558594 C 44.527344 58.515625 45.144531 59.085938 45.902344 59.820312 C 49.984375 63.808594 54.058594 66.917969 58.796875 69.675781 C 64.402344 72.945312 71.027344 75.402344 76.347656 76.195312 C 77.5 76.371094 77.476562 76.371094 77.324219 76.085938 C 77.121094 75.695312 76.777344 74.15625 76.648438 73.0625 C 76.429688 71.253906 76.339844 69.835938 76.289062 67.359375 C 76.246094 65.261719 76.21875 64.953125 76.101562 64.910156 C 76.027344 64.894531 75.496094 64.777344 74.914062 64.660156 C 65.5625 62.730469 57.433594 59.394531 51.925781 55.246094 C 50.195312 53.933594 48.550781 52.355469 47.414062 50.910156 C 46.953125 50.316406 46.347656 49.402344 46.421875 49.402344 C 46.449219 49.402344 46.910156 49.753906 47.457031 50.179688 C 55.269531 56.34375 63.710938 59.9375 73.90625 61.433594 C 76.792969 61.859375 79.417969 62.09375 85.144531 62.445312 C 92.683594 62.90625 95.640625 63.332031 98.695312 64.367188 C 100.144531 64.867188 100.015625 64.84375 99.957031 64.566406 C 99.847656 64.066406 98.964844 62.453125 98.324219 61.609375 C 96.75 59.511719 93.878906 56.644531 90.816406 54.101562 L 90.09375 53.5 L 88.332031 53.5 C 86.195312 53.5 81.582031 53.367188 79.460938 53.25 C 68.300781 52.621094 57.710938 50.597656 52.566406 48.109375 C 51.597656 47.640625 50.773438 47.105469 50.867188 47.011719 C 50.882812 46.996094 51.121094 47.078125 51.398438 47.195312 C 53.441406 48.101562 56.339844 48.84375 59.636719 49.3125 C 64.148438 49.957031 66.582031 50.0625 78.359375 50.15625 C 89.695312 50.238281 92.195312 50.332031 95.4375 50.75 C 96.96875 50.941406 98.171875 51.167969 99.183594 51.445312 C 99.585938 51.550781 99.914062 51.621094 99.914062 51.585938 C 99.914062 51.550781 99.570312 50.910156 99.148438 50.148438 C 97.726562 47.597656 96.078125 45.273438 94.378906 43.417969 C 93.292969 42.238281 92.542969 41.554688 91.28125 40.617188 C 89.707031 39.449219 88.804688 39.046875 86.910156 38.664062 C 84.78125 38.234375 83.652344 38.160156 78.914062 38.160156 C 74.679688 38.160156 73.476562 38.203125 69.359375 38.503906 C 65.160156 38.804688 59 39.441406 54.039062 40.082031 C 53.332031 40.175781 56.777344 39.15625 59.21875 38.546875 C 69.308594 36.046875 80.839844 35.410156 92.085938 36.746094 C 94.125 36.980469 97.996094 37.617188 98.804688 37.835938 C 98.921875 37.867188 98.988281 37.851562 98.988281 37.777344 C 98.988281 37.574219 98.046875 35.320312 97.542969 34.324219 C 96.421875 32.109375 95.261719 30.46875 93.578125 28.765625 C 90.394531 25.539062 86.40625 23.640625 81.3125 22.9375 C 79.824219 22.730469 76.210938 22.730469 74.757812 22.9375 C 74.175781 23.011719 73.679688 23.097656 73.636719 23.121094 C 73.601562 23.148438 73.570312 23.140625 73.570312 23.097656 C 73.570312 22.996094 74.046875 22.695312 74.597656 22.445312 C 75.210938 22.167969 76.640625 21.851562 77.8125 21.742188 C 78.316406 21.691406 79.738281 21.652344 80.96875 21.652344 C 83.113281 21.652344 84.082031 21.699219 86.179688 21.910156 L 87.121094 22 L 89.519531 20.679688 C 90.839844 19.953125 91.917969 19.335938 91.917969 19.300781 C 91.917969 19.175781 90.175781 17.8125 89.082031 17.085938 C 84.824219 14.226562 79.453125 12.605469 72.894531 12.195312 C 71.421875 12.105469 68.300781 12.144531 67.871094 12.253906 C 67.601562 12.332031 67.625 12.1875 67.914062 12.019531 C 68.738281 11.535156 71.699219 11.035156 75.167969 10.785156 L 76.472656 10.683594 L 78.855469 9.304688 C 80.160156 8.535156 81.230469 7.890625 81.230469 7.859375 C 81.230469 7.757812 79.488281 7.171875 78.242188 6.855469 C 73.828125 5.734375 68.003906 5.757812 62.230469 6.9375 C 61.546875 7.070312 60.984375 7.171875 60.96875 7.164062 C 60.882812 7.070312 61.296875 6.722656 61.785156 6.480469 C 62.535156 6.101562 63.738281 5.75 65.539062 5.390625 L 67.003906 5.089844 L 68.183594 4.195312 C 68.820312 3.710938 69.335938 3.292969 69.316406 3.277344 C 69.25 3.210938 68.003906 2.925781 67.128906 2.785156 C 65.96875 2.589844 61.523438 2.566406 60.101562 2.742188 C 57.753906 3.035156 55.058594 3.503906 54.023438 3.8125 C 53.636719 3.929688 54 3.019531 54.746094 1.988281 C 54.957031 1.695312 55.414062 1.136719 55.757812 0.726562 L 56.398438 0 L 55.707031 0.0078125 C 55.320312 0.015625 54.707031 0.0507812 54.335938 0.09375 Z M 45.503906 13.109375 C 45.664062 13.214844 45.765625 13.484375 45.917969 14.203125 C 46.21875 15.707031 46.3125 16.492188 46.355469 18.183594 C 46.421875 20.796875 46.210938 22.402344 45.523438 24.453125 C 45.167969 25.519531 44.378906 27.125 43.898438 27.769531 L 43.601562 28.171875 L 42.214844 28.171875 C 40.941406 28.171875 40.648438 28.121094 40.910156 27.960938 C 41.078125 27.863281 41.683594 26.558594 41.960938 25.714844 C 42.316406 24.644531 42.625 23.140625 42.835938 21.484375 C 42.980469 20.371094 43.183594 18.171875 43.183594 17.695312 C 43.183594 17.589844 42.609375 17.929688 40.976562 19.035156 C 36.09375 22.320312 36.566406 22.027344 36.328125 21.867188 C 36.0625 21.699219 36.050781 21.417969 36.28125 20.921875 C 37.265625 18.75 42.121094 14.101562 44.328125 13.214844 C 44.746094 13.050781 45.335938 12.992188 45.503906 13.109375 Z M 23.046875 29.484375 C 21.085938 31.765625 18.148438 35.027344 18.097656 34.96875 C 17.769531 34.632812 15.589844 31.714844 15.640625 31.671875 C 15.671875 31.640625 16.910156 31.253906 18.390625 30.8125 C 19.875 30.359375 21.539062 29.851562 22.097656 29.675781 C 22.652344 29.5 23.121094 29.351562 23.140625 29.351562 C 23.15625 29.339844 23.113281 29.410156 23.046875 29.484375 Z M 6.480469 38.988281 C 6.480469 39.023438 4.714844 43.601562 4.527344 44.054688 C 4.445312 44.246094 4.34375 44.070312 3.410156 42.171875 C 2.835938 41.019531 2.382812 40.074219 2.382812 40.066406 C 2.398438 40.050781 6.339844 38.972656 6.421875 38.964844 C 6.457031 38.953125 6.480469 38.972656 6.480469 38.988281 Z M 6.480469 38.988281 "/>
</g>
</svg>
